<svg xmlns="http://www.w3.org/2000/svg" xmlns:xlink="http://www.w3.org/1999/xlink" width="500" zoomAndPan="magnify" viewBox="0 0 375 374.999991" height="500" preserveAspectRatio="xMidYMid meet" version="1.0"><defs><clipPath id="2c2e111a19"><path d="M 22.5 0 L 352.5 0 L 352.5 375 L 22.5 375 Z M 22.5 0 " clip-rule="nonzero"/></clipPath></defs><g clip-path="url(#2c2e111a19)"><path fill="#cbddd1" d="M 197.5 196.667969 L 197.5 146.667969 C 199.167969 120 209.167969 101.667969 230.832031 88.332031 C 234.167969 86.667969 235.832031 86.667969 237.5 85 L 239.167969 85 C 247.5 80 259.167969 76.667969 270.832031 76.667969 L 270.832031 115 L 270.832031 101.667969 L 270.832031 116.667969 C 270.832031 138.332031 260.832031 158.332031 245.832031 173.332031 C 234.167969 185 215.832031 195 197.5 196.667969 Z M 62.5 218.332031 C 57.5 213.332031 52.5 215 47.5 218.332031 C 44.167969 221.667969 44.167969 228.332031 49.167969 233.332031 C 65.832031 248.332031 84.167969 258.332031 105.832031 266.667969 C 139.167969 278.332031 184.167969 281.667969 220.832031 283.332031 C 227.5 283.332031 235.832031 281.667969 242.5 283.332031 C 249.167969 285 255.832031 288.332031 260.832031 293.332031 C 265.832031 300 270.832031 310 270.832031 320 C 270.832031 330 265.832031 338.332031 260.832031 345 C 254.167969 351.667969 244.167969 356.667969 234.167969 356.667969 C 224.167969 356.667969 214.167969 351.667969 207.5 345 C 202.5 338.332031 197.5 330 197.5 320 C 197.5 318.332031 197.5 316.667969 197.5 315 L 197.5 291.667969 C 190.832031 291.667969 184.167969 290 177.5 290 L 177.5 316.667969 C 177.5 316.667969 177.5 318.332031 177.5 320 C 177.5 335 184.167969 348.332031 194.167969 358.332031 C 204.167969 368.332031 219.167969 375 234.167969 375 C 249.167969 375 264.167969 368.332031 274.167969 358.332031 C 284.167969 348.332031 290.832031 335 290.832031 320 C 290.832031 303.332031 284.167969 290 274.167969 280 C 265.832031 271.667969 254.167969 265 240.832031 263.332031 C 235.832031 263.332031 227.5 263.332031 222.5 263.332031 C 212.5 263.332031 205.832031 263.332031 197.5 263.332031 L 197.5 215 C 232.5 215 267.5 205 290.832031 190 C 325.832031 165 344.167969 133.332031 352.5 90 C 330.832031 83.332031 310.832031 81.667969 290.832031 85 L 290.832031 55 C 269.167969 56.667969 249.167969 60 234.167969 65 C 232.5 58.332031 229.167969 50 224.167969 41.667969 C 217.5 28.332031 207.5 16.667969 195.832031 6.667969 L 187.5 0 L 180.832031 6.667969 C 169.167969 16.667969 159.167969 28.332031 150.832031 41.667969 C 147.5 50 144.167969 58.332031 140.832031 65 C 125.832031 60 107.5 56.667969 85.832031 55 L 85.832031 83.332031 C 65.832031 81.667969 45.832031 83.332031 22.5 90 C 32.5 133.332031 49.167969 165 84.167969 190 C 109.167969 205 142.5 215 177.5 215 L 177.5 260 C 154.167969 258.332031 132.5 255 112.5 248.332031 C 94.167969 241.667969 77.5 231.667969 62.5 218.332031 Z M 290.832031 85 L 290.832031 105 C 302.5 101.667969 315.832031 101.667969 329.167969 105 C 319.167969 140 294.167969 166.667969 264.167969 181.667969 C 280.832031 163.332031 290.832031 140 290.832031 113.332031 Z M 47.5 105 C 59.167969 101.667969 72.5 101.667969 85.832031 105 L 85.832031 113.332031 C 85.832031 141.667969 95.832031 166.667969 114.167969 185 L 112.5 181.667969 C 80.832031 166.667969 57.5 138.332031 47.5 105 Z M 187.5 28.332031 C 194.167969 35 200.832031 43.332031 205.832031 51.667969 C 209.167969 58.332031 212.5 66.667969 214.167969 76.667969 C 210.832031 78.332031 205.832031 81.667969 202.5 86.667969 C 195.832031 91.667969 192.5 98.332031 187.5 106.667969 C 184.167969 98.332031 179.167969 91.667969 174.167969 86.667969 C 169.167969 81.667969 165.832031 78.332031 160.832031 76.667969 C 162.5 66.667969 165.832031 58.332031 170.832031 51.667969 C 175.832031 43.332031 180.832031 35 187.5 28.332031 Z M 137.5 85 C 139.167969 86.667969 142.5 86.667969 144.167969 88.332031 C 167.5 101.667969 177.5 120 177.5 146.667969 L 177.5 196.667969 C 159.167969 195 142.5 185 129.167969 173.332031 C 114.167969 158.332031 105.832031 138.332031 105.832031 116.667969 L 105.832031 101.667969 L 105.832031 115 L 105.832031 76.667969 C 117.5 76.667969 127.5 80 137.5 85 Z M 197.5 320 L 197.5 318.332031 C 197.5 318.332031 197.5 316.667969 197.5 316.667969 L 197.5 315 Z M 197.5 320 " fill-opacity="1" fill-rule="nonzero"/></g></svg>